#N canvas 58 27 1990 1094 12;
#N canvas 798 440 452 301 patchstate 0;
#X obj 118 168 cputime;
#X obj 118 28 loadbang;
#X obj 118 112 metro 1000;
#X msg 118 56 1;
#X floatatom 118 84 0 0 0 0 - - -;
#X obj 118 140 t b b;
#X obj 118 228 * 0.1;
#X obj 118 197 int;
#X text 163 84 <-- on/off;
#X obj 118 250 outlet;
#X obj 258 207 samplerate~;
#X obj 258 187 r pd-dsp-started;
#X floatatom 209 223 7 0 0 0 - - -, f 7;
#X obj 258 250 outlet;
#X connect 0 0 7 0;
#X connect 1 0 3 0;
#X connect 2 0 5 0;
#X connect 3 0 4 0;
#X connect 4 0 2 0;
#X connect 5 0 0 0;
#X connect 5 1 0 1;
#X connect 6 0 9 0;
#X connect 7 0 6 0;
#X connect 10 0 12 0;
#X connect 10 0 13 0;
#X connect 11 0 10 0;
#X restore 99 1133 pd patchstate;
#X floatatom 99 1151 5 0 0 3 Cpu-% - -, f 5;
#X floatatom 174 1151 5 0 0 3 S-Rate - -, f 5;
#X obj -1 233 granular26/granular26;
#X obj -1 1133 dac~ 1 2;
#X obj 569 233 granular26/granular26;
#X obj -1 893 *~;
#X obj 49 893 *~;
#X obj 70 50 hsl 128 15 0 1 0 0 voice1-level empty Voice\\\ 1 -2 -8
0 10 #fcfcfc #000000 #000000 8500 1;
#X obj 70 80 hsl 128 15 0 1 0 0 voice2-level empty Voice\\\ 2 -2 -8
0 10 #fcfcfc #000000 #000000 9200 1;
#X obj 70 110 hsl 128 15 0 1 0 0 voice3-level empty Voice\\\ 3 -2 -8
0 10 #fcfcfc #000000 #000000 9400 1;
#X obj 70 140 hsl 128 15 0 1 0 0 voice4-level empty Voice\\\ 4 -2 -8
0 10 #fcfcfc #000000 #000000 5700 1;
#X obj 19 853 r voice1-level;
#X obj -1 943 +~;
#X obj 579 893 *~;
#X obj 599 853 r voice2-level;
#X obj 629 893 *~;
#X obj 49 963 +~;
#X obj -1 1003 +~;
#X obj 49 1023 +~;
#X obj -1 1063 +~;
#X obj 49 1093 +~;
#X obj 1139 233 granular26/granular26;
#X obj 1139 893 *~;
#X obj 1159 853 r voice3-level;
#X obj 1189 893 *~;
#X obj 1709 233 granular26/granular26;
#X obj 1709 883 *~;
#X obj 1759 883 *~;
#X obj 1731 848 r voice4-level;
#X text 60 20 Amplitude:;
#X obj 300 10 netreceive -u -b 5001;
#X obj 300 40 oscparse;
#X obj 300 69 route midi;
#X obj 300 100 route 1 2 3 4;
#X obj 300 180 unpack f f f;
#X obj 579 183 unpack f f f;
#X obj 1159 183 unpack f f f;
#X obj 1719 183 unpack f f f;
#X floatatom 220 50 5 0 0 0 - voice1-level -, f 5;
#X floatatom 220 80 5 0 0 0 - voice2-level -, f 5;
#X floatatom 220 110 5 0 0 0 - voice3-level -, f 5;
#X floatatom 220 140 5 0 0 0 - voice4-level -, f 5;
#X msg 490 20 midi 1 60 100 2;
#X msg 510 40 midi 2 63 100 1;
#X msg 620 40 midi 2 65 110 3;
#X msg 520 60 midi 3 65 105 0.5;
#X msg 540 80 midi 4 68 120 4;
#X text 490 0 Test messages;
#X connect 0 0 1 0;
#X connect 0 1 2 0;
#X connect 3 0 6 0;
#X connect 3 1 7 0;
#X connect 5 0 14 0;
#X connect 5 1 16 0;
#X connect 6 0 13 0;
#X connect 7 0 17 0;
#X connect 12 0 6 1;
#X connect 12 0 7 1;
#X connect 13 0 18 0;
#X connect 14 0 13 1;
#X connect 15 0 14 1;
#X connect 15 0 16 1;
#X connect 16 0 17 1;
#X connect 17 0 19 0;
#X connect 18 0 20 0;
#X connect 19 0 21 0;
#X connect 20 0 4 0;
#X connect 21 0 4 1;
#X connect 22 0 23 0;
#X connect 22 1 25 0;
#X connect 23 0 18 1;
#X connect 24 0 23 1;
#X connect 24 0 25 1;
#X connect 25 0 19 1;
#X connect 26 0 27 0;
#X connect 26 1 28 0;
#X connect 27 0 20 1;
#X connect 28 0 21 1;
#X connect 29 0 27 1;
#X connect 29 0 28 1;
#X connect 31 0 32 0;
#X connect 32 0 33 0;
#X connect 33 0 34 0;
#X connect 34 0 35 0;
#X connect 34 1 36 0;
#X connect 34 2 37 0;
#X connect 34 3 38 0;
#X connect 35 0 3 0;
#X connect 35 1 3 1;
#X connect 35 2 3 2;
#X connect 36 0 5 0;
#X connect 36 1 5 1;
#X connect 36 2 5 2;
#X connect 37 0 22 0;
#X connect 37 1 22 1;
#X connect 37 2 22 2;
#X connect 38 0 26 0;
#X connect 38 1 26 1;
#X connect 38 2 26 2;
#X connect 43 0 33 0;
#X connect 44 0 33 0;
#X connect 45 0 33 0;
#X connect 46 0 33 0;
#X connect 47 0 33 0;
