#N canvas 89 58 1193 968 10;
#X obj 160 30 inlet;
#X text 308 8 attack time;
#X text 391 8 decay time;
#X text 230 7 sustain amp;
#X text 463 7 release time;
#X obj 230 30 inlet;
#X obj 310 30 inlet;
#X obj 400 30 inlet;
#X obj 470 30 inlet;
#X text 156 7 attack peak;
#X obj 230 580 line~;
#X obj 219 207 pack f f;
#X obj 142 135 f;
#X obj 294 136 f;
#X obj 117 252 del;
#X obj 256 370 pack f f;
#X obj 258 320 f;
#X obj 307 320 f;
#X obj 67 99 trigger b b b;
#X obj 117 285 trigger b b;
#X obj 18 67 sel 0;
#X obj 317 525 pack 0 f;
#X obj 456 480 f;
#X obj 13 429 trigger b b;
#X obj 17 27 inlet;
#X text 15 6 trigger;
#X text 70 21 != 0 -> on;
#X text 71 8 == 0 -> off;
#X obj 17 188 trigger b b;
#X msg 80 213 stop;
#X obj 230 660 outlet~;
#X text 300 210 rise to attack peak;
#X text 300 250 after a delay lasting the attack time...;
#X text 318 371 ...fall to sustain amp in decay time;
#X text 384 524 fade out in release time;
#X text 100 190 note off;
#X text 120 210 cancel decay;
#X text 161 98 note on;
#X connect 0 0 12 1;
#X connect 5 0 16 1;
#X connect 6 0 13 1;
#X connect 7 0 17 1;
#X connect 8 0 22 1;
#X connect 10 0 30 0;
#X connect 11 0 10 0;
#X connect 12 0 11 0;
#X connect 13 0 11 1;
#X connect 13 0 14 1;
#X connect 14 0 19 0;
#X connect 15 0 10 0;
#X connect 16 0 15 0;
#X connect 17 0 15 1;
#X connect 18 0 14 0;
#X connect 18 1 12 0;
#X connect 18 2 13 0;
#X connect 19 0 16 0;
#X connect 19 1 17 0;
#X connect 20 0 28 0;
#X connect 20 1 18 0;
#X connect 21 0 10 0;
#X connect 22 0 21 1;
#X connect 23 0 21 0;
#X connect 23 1 22 0;
#X connect 24 0 20 0;
#X connect 28 0 23 0;
#X connect 28 1 29 0;
#X connect 29 0 14 0;
