#N canvas 48 27 2000 1094 10;
#X obj 11 18 hsl 195 8 0 1 0 0 empty g26-\$0-r-grain-1 empty -2 -8
0 10 #fcfcfc #000000 #000000 9700 1;
#X obj 11 26 hsl 195 8 0 1 0 0 empty g26-\$0-r-grain-2 empty -2 -8
0 10 #fcfcfc #000000 #000000 9700 1;
#X obj 11 34 hsl 195 8 0 1 0 0 empty g26-\$0-r-grain-3 empty -2 -8
0 10 #fcfcfc #000000 #000000 9700 1;
#X obj 11 42 hsl 195 8 0 1 0 0 empty g26-\$0-r-grain-4 empty -2 -8
0 10 #fcfcfc #000000 #000000 9700 1;
#X obj 11 50 hsl 195 8 0 1 0 0 empty g26-\$0-r-grain-5 empty -2 -8
0 10 #fcfcfc #000000 #000000 9700 1;
#X obj 11 58 hsl 195 8 0 1 0 0 empty g26-\$0-r-grain-6 empty -2 -8
0 10 #fcfcfc #000000 #000000 9700 1;
#X obj 11 66 hsl 195 8 0 1 0 0 empty g26-\$0-r-grain-7 empty -2 -8
0 10 #fcfcfc #000000 #000000 9700 1;
#X obj 11 74 hsl 195 8 0 1 0 0 empty g26-\$0-r-grain-8 empty -2 -8
0 10 #fcfcfc #000000 #000000 9700 1;
#X obj 11 82 hsl 195 8 0 1 0 0 empty g26-\$0-r-grain-9 empty -2 -8
0 10 #fcfcfc #000000 #000000 0 1;
#X obj 11 90 hsl 195 8 0 1 0 0 empty g26-\$0-r-grain-10 empty -2 -8
0 10 #fcfcfc #000000 #000000 0 1;
#X obj 11 98 hsl 195 8 0 1 0 0 empty g26-\$0-r-grain-11 empty -2 -8
0 10 #fcfcfc #000000 #000000 0 1;
#X obj 11 106 hsl 195 8 0 1 0 0 empty g26-\$0-r-grain-12 empty -2 -8
0 10 #fcfcfc #000000 #000000 0 1;
#X obj 11 114 hsl 195 8 0 1 0 0 empty g26-\$0-r-grain-13 empty -2 -8
0 10 #fcfcfc #000000 #000000 0 1;
#X obj 11 122 hsl 195 8 0 1 0 0 empty g26-\$0-r-grain-14 empty -2 -8
0 10 #fcfcfc #000000 #000000 0 1;
#X obj 11 130 hsl 195 8 0 1 0 0 empty g26-\$0-r-grain-15 empty -2 -8
0 10 #fcfcfc #000000 #000000 0 1;
#X obj 11 138 hsl 195 8 0 1 0 0 empty g26-\$0-r-grain-16 empty -2 -8
0 10 #fcfcfc #000000 #000000 0 1;
#X obj 11 146 hsl 195 8 0 1 0 0 empty g26-\$0-r-grain-17 empty -2 -8
0 10 #fcfcfc #000000 #000000 0 1;
#X obj 11 154 hsl 195 8 0 1 0 0 empty g26-\$0-r-grain-18 empty -2 -8
0 10 #fcfcfc #000000 #000000 0 1;
#X obj 11 162 hsl 195 8 0 1 0 0 empty g26-\$0-r-grain-19 empty -2 -8
0 10 #fcfcfc #000000 #000000 0 1;
#X obj 11 170 hsl 195 8 0 1 0 0 empty g26-\$0-r-grain-20 empty -2 -8
0 10 #fcfcfc #000000 #000000 0 1;
#X obj 11 178 hsl 195 8 0 1 0 0 empty g26-\$0-r-grain-21 empty -2 -8
0 10 #fcfcfc #000000 #000000 0 1;
#X obj 11 186 hsl 195 8 0 1 0 0 empty g26-\$0-r-grain-22 empty -2 -8
0 10 #fcfcfc #000000 #000000 0 1;
#X obj 11 194 hsl 195 8 0 1 0 0 empty g26-\$0-r-grain-23 empty -2 -8
0 10 #fcfcfc #000000 #000000 0 1;
#X obj 11 202 hsl 195 8 0 1 0 0 empty g26-\$0-r-grain-24 empty -2 -8
0 10 #fcfcfc #000000 #000000 0 1;
#X obj 11 210 hsl 195 8 0 1 0 0 empty g26-\$0-r-grain-25 empty -2 -8
0 10 #fcfcfc #000000 #000000 0 1;
#X obj 11 218 hsl 195 8 0 1 0 0 empty g26-\$0-r-grain-26 empty -2 -8
0 10 #fcfcfc #000000 #000000 0 1;
#X obj 11 226 hsl 195 8 0 1 0 0 empty g26-\$0-r-grain-27 empty -2 -8
0 10 #fcfcfc #000000 #000000 0 1;
#X obj 11 234 hsl 195 8 0 1 0 0 empty g26-\$0-r-grain-28 empty -2 -8
0 10 #fcfcfc #000000 #000000 0 1;
#X obj 11 242 hsl 195 8 0 1 0 0 empty g26-\$0-r-grain-29 empty -2 -8
0 10 #fcfcfc #000000 #000000 0 1;
#X obj 11 250 hsl 195 8 0 1 0 0 empty g26-\$0-r-grain-30 empty -2 -8
0 10 #fcfcfc #000000 #000000 0 1;
#X obj 11 258 hsl 195 8 0 1 0 0 empty g26-\$0-r-grain-31 empty -2 -8
0 10 #fcfcfc #000000 #000000 0 1;
#X obj 11 266 hsl 195 8 0 1 0 0 empty g26-\$0-r-grain-32 empty -2 -8
0 10 #fcfcfc #000000 #000000 0 1;
#X obj 11 274 hsl 195 8 0 1 0 0 empty g26-\$0-r-grain-33 empty -2 -8
0 10 #fcfcfc #000000 #000000 0 1;
#X obj 11 282 hsl 195 8 0 1 0 0 empty g26-\$0-r-grain-34 empty -2 -8
0 10 #fcfcfc #000000 #000000 0 1;
#X obj 11 290 hsl 195 8 0 1 0 0 empty g26-\$0-r-grain-35 empty -2 -8
0 10 #fcfcfc #000000 #000000 0 1;
#X obj 11 298 hsl 195 8 0 1 0 0 empty g26-\$0-r-grain-36 empty -2 -8
0 10 #fcfcfc #000000 #000000 0 1;
#X obj 11 306 hsl 195 8 0 1 0 0 empty g26-\$0-r-grain-37 empty -2 -8
0 10 #fcfcfc #000000 #000000 0 1;
#X obj 11 314 hsl 195 8 0 1 0 0 empty g26-\$0-r-grain-38 empty -2 -8
0 10 #fcfcfc #000000 #000000 0 1;
#X obj 11 322 hsl 195 8 0 1 0 0 empty g26-\$0-r-grain-39 empty -2 -8
0 10 #fcfcfc #000000 #000000 0 1;
#X obj 11 330 hsl 195 8 0 1 0 0 empty g26-\$0-r-grain-40 empty -2 -8
0 10 #fcfcfc #000000 #000000 0 1;
#X obj 11 338 hsl 195 8 0 1 0 0 empty g26-\$0-r-grain-41 empty -2 -8
0 10 #fcfcfc #000000 #000000 0 1;
#X obj 11 346 hsl 195 8 0 1 0 0 empty g26-\$0-r-grain-42 empty -2 -8
0 10 #fcfcfc #000000 #000000 0 1;
#X obj 11 354 hsl 195 8 0 1 0 0 empty g26-\$0-r-grain-43 empty -2 -8
0 10 #fcfcfc #000000 #000000 0 1;
#X obj 11 362 hsl 195 8 0 1 0 0 empty g26-\$0-r-grain-44 empty -2 -8
0 10 #fcfcfc #000000 #000000 0 1;
#X obj 11 370 hsl 195 8 0 1 0 0 empty g26-\$0-r-grain-45 empty -2 -8
0 10 #fcfcfc #000000 #000000 0 1;
#X obj 11 378 hsl 195 8 0 1 0 0 empty g26-\$0-r-grain-46 empty -2 -8
0 10 #fcfcfc #000000 #000000 0 1;
#X obj 11 386 hsl 195 8 0 1 0 0 empty g26-\$0-r-grain-47 empty -2 -8
0 10 #fcfcfc #000000 #000000 0 1;
#X obj 11 394 hsl 195 8 0 1 0 0 empty g26-\$0-r-grain-48 empty -2 -8
0 10 #fcfcfc #000000 #000000 0 1;
#X obj 11 402 hsl 195 8 0 1 0 0 empty g26-\$0-r-grain-49 empty -2 -8
0 10 #fcfcfc #000000 #000000 0 1;
#X obj 11 410 hsl 195 8 0 1 0 0 empty g26-\$0-r-grain-50 empty -2 -8
0 10 #fcfcfc #000000 #000000 0 1;
#X obj 11 418 hsl 195 8 0 1 0 0 empty g26-\$0-r-grain-51 empty -2 -8
0 10 #fcfcfc #000000 #000000 0 1;
#X obj 11 426 hsl 195 8 0 1 0 0 empty g26-\$0-r-grain-52 empty -2 -8
0 10 #fcfcfc #000000 #000000 0 1;
#X obj 11 434 hsl 195 8 0 1 0 0 empty g26-\$0-r-grain-53 empty -2 -8
0 10 #fcfcfc #000000 #000000 0 1;
#X obj 11 442 hsl 195 8 0 1 0 0 empty g26-\$0-r-grain-54 empty -2 -8
0 10 #fcfcfc #000000 #000000 0 0;
#X obj 11 450 hsl 195 8 0 1 0 0 empty g26-\$0-r-grain-55 empty -2 -8
0 10 #fcfcfc #000000 #000000 0 1;
#X obj 11 458 hsl 195 8 0 1 0 0 empty g26-\$0-r-grain-56 empty -2 -8
0 10 #fcfcfc #000000 #000000 0 1;
#X obj 11 466 hsl 195 8 0 1 0 0 empty g26-\$0-r-grain-57 empty -2 -8
0 10 #fcfcfc #000000 #000000 0 1;
#X obj 11 474 hsl 195 8 0 1 0 0 empty g26-\$0-r-grain-58 empty -2 -8
0 10 #fcfcfc #000000 #000000 0 1;
#X obj 11 482 hsl 195 8 0 1 0 0 empty g26-\$0-r-grain-59 empty -2 -8
0 10 #fcfcfc #000000 #000000 0 1;
#X obj 11 490 hsl 195 8 0 1 0 0 empty g26-\$0-r-grain-60 empty -2 -8
0 10 #fcfcfc #000000 #000000 0 1;
#X obj 11 498 hsl 195 8 0 1 0 0 empty g26-\$0-r-grain-61 empty -2 -8
0 10 #fcfcfc #000000 #000000 0 1;
#X obj 11 506 hsl 195 8 0 1 0 0 empty g26-\$0-r-grain-62 empty -2 -8
0 10 #fcfcfc #000000 #000000 0 1;
#X obj 11 514 hsl 195 8 0 1 0 0 empty g26-\$0-r-grain-63 empty -2 -8
0 10 #fcfcfc #000000 #000000 0 1;
#X obj 11 522 hsl 195 8 0 1 0 0 empty g26-\$0-r-grain-64 empty -2 -8
0 10 #fcfcfc #000000 #000000 0 1;
#N canvas 797 450 454 282 (subpatch) 0;
#X array g26-\$0-grain 258891 float 0 black black;
#X coords 0 1 258890 -1 200 512 1;
#X restore 8 18 graph;
#N canvas 104 27 1818 1029 window-functions 0;
#X obj 180 340 phasor~ 1;
#X obj 329 186 tgl 15 0 empty empty empty 17 7 0 10 #fcfcfc #000000
#000000 0 1;
#X obj 264 220 metro 1000;
#X obj 180 380 expr~ abs((abs($v1-0.5)*2)-1);
#X obj 210 440 expr~ min($v1*2 \, 1);
#X obj 260 560 expr~ pow($v1 \, 8);
#X obj 264 242 +;
#X obj 228 226 + 1;
#X obj 264 261 sel 1;
#X msg 264 280 0;
#X obj 260 540 expr~ abs($v1-0.5)*2;
#X obj 260 580 expr~ abs($v1-1);
#X msg 71 205 normalize 1;
#X obj 230 470 expr~ abs($v1-0.5)*2;
#X obj 230 510 expr~ abs($v1-1);
#X obj 230 490 expr~ pow($v1 \, 0.5);
#X obj 329 154 loadbang;
#X text 90 380 Triangle;
#X text 90 410 Cos;
#N canvas 0 23 450 300 cosinus 0;
#X obj 173 85 inlet~;
#X obj 173 147 cos~;
#X obj 173 166 *~ 0.5;
#X obj 173 185 +~ 0.5;
#X obj 173 128 wrap~;
#X obj 173 109 +~ 0.5;
#X obj 173 207 outlet~;
#X connect 0 0 5 0;
#X connect 1 0 2 0;
#X connect 2 0 3 0;
#X connect 3 0 6 0;
#X connect 4 0 1 0;
#X connect 5 0 4 0;
#X restore 200 410 pd cosinus;
#X text 90 440 Trapazoid 1;
#X text 90 470 Trapazoid 2;
#X text 90 540 Trapazoid 3;
#X obj 200 170 t b b f;
#X obj 200 100 hradio 14 1 1 5 empty empty Cosinus 2 8 0 10 #fcfcfc
#fcc4c4 #000000 1;
#N canvas 0 22 450 300 label 0;
#X obj 129 48 inlet;
#X obj 129 70 sel 0 1 2 3 4;
#X msg 129 92 label Triangle;
#X obj 129 189 outlet;
#X msg 144 112 label Cosinus;
#X msg 159 132 label Trapazoid-1;
#X msg 174 152 label Trapazoid-2;
#X msg 189 172 label Trapazoid-3;
#X connect 0 0 1 0;
#X connect 1 0 2 0;
#X connect 1 1 4 0;
#X connect 1 2 5 0;
#X connect 1 3 6 0;
#X connect 1 4 7 0;
#X connect 2 0 3 0;
#X connect 4 0 3 0;
#X connect 5 0 3 0;
#X connect 6 0 3 0;
#X connect 7 0 3 0;
#X restore 200 70 pd label;
#X obj 71 186 del 1001;
#N canvas 515 366 592 291 spigot~ 0;
#X obj 52 40 inlet~;
#X obj 432 62 inlet;
#X obj 432 118 outlet~;
#X obj 52 102 *~;
#X obj 67 78 == 0;
#X obj 112 40 inlet~;
#X obj 112 102 *~;
#X obj 172 40 inlet~;
#X obj 172 102 *~;
#X obj 232 40 inlet~;
#X obj 232 102 *~;
#X obj 127 78 == 1;
#X obj 187 78 == 2;
#X obj 247 78 == 3;
#X obj 292 40 inlet~;
#X obj 292 102 *~;
#X obj 352 40 inlet~;
#X obj 352 102 *~;
#X obj 307 78 == 4;
#X obj 367 78 == 5;
#X connect 0 0 3 0;
#X connect 1 0 4 0;
#X connect 1 0 11 0;
#X connect 1 0 13 0;
#X connect 1 0 12 0;
#X connect 1 0 18 0;
#X connect 1 0 19 0;
#X connect 3 0 2 0;
#X connect 4 0 3 1;
#X connect 5 0 6 0;
#X connect 6 0 2 0;
#X connect 7 0 8 0;
#X connect 8 0 2 0;
#X connect 9 0 10 0;
#X connect 10 0 2 0;
#X connect 11 0 6 1;
#X connect 12 0 8 1;
#X connect 13 0 10 1;
#X connect 14 0 15 0;
#X connect 15 0 2 0;
#X connect 16 0 17 0;
#X connect 17 0 2 0;
#X connect 18 0 15 1;
#X connect 19 0 17 1;
#X restore 182 606 pd spigot~;
#X obj 320 620 sel 1;
#X obj 320 640 bng 15 250 50 0 empty empty empty 17 7 0 10 #fcfcfc
#000000 #000000;
#X obj 264 201 t f f f f;
#X obj 298 300 sel 1;
#X msg 298 321 0;
#X text 90 340 1hz = 1 sec;
#X obj 71 224 s g26-\$0-grain-window;
#X obj 110 640 tabwrite~ g26-\$0-grain-window;
#X connect 0 0 3 0;
#X connect 0 0 10 0;
#X connect 0 0 13 0;
#X connect 0 0 19 0;
#X connect 1 0 30 0;
#X connect 2 0 6 0;
#X connect 3 0 4 0;
#X connect 3 0 27 0;
#X connect 4 0 27 2;
#X connect 5 0 11 0;
#X connect 6 0 7 0;
#X connect 6 0 8 0;
#X connect 7 0 6 1;
#X connect 8 0 9 0;
#X connect 9 0 1 0;
#X connect 10 0 5 0;
#X connect 11 0 27 4;
#X connect 12 0 34 0;
#X connect 13 0 15 0;
#X connect 14 0 27 3;
#X connect 15 0 14 0;
#X connect 16 0 1 0;
#X connect 19 0 27 1;
#X connect 23 0 26 0;
#X connect 23 1 1 0;
#X connect 23 2 27 6;
#X connect 24 0 25 0;
#X connect 24 0 23 0;
#X connect 25 0 24 0;
#X connect 26 0 12 0;
#X connect 27 0 35 0;
#X connect 28 0 29 0;
#X connect 28 0 35 0;
#X connect 30 0 2 0;
#X connect 30 1 6 1;
#X connect 30 2 31 0;
#X connect 30 3 28 0;
#X connect 31 0 32 0;
#X connect 32 0 0 1;
#X coords 0 -1 1 1 70 14 2 200 100;
#X restore 220 222 pd window-functions;
#N canvas 798 466 452 251 (subpatch) 0;
#X array g26-\$0-grain-window 48000 float 4 black black;
#X coords 0 1 47999 0 70 50 1;
#X restore 220 170 graph;
#N canvas 1120 84 771 623 test-prev 0;
#X obj 50 290 outlet~;
#X obj 240 170 tgl 15 0 empty empty empty 17 7 0 10 #fcfcfc #000000
#000000 0 1;
#N canvas 1152 214 531 518 crossfade~ 0;
#X obj 40 370 *~;
#X obj 110 370 *~;
#X obj 70 210 *~ -1;
#X obj 70 232 +~ 1;
#X obj 80 450 outlet~;
#X obj 40 320 inlet~;
#X obj 110 320 inlet~;
#X obj 270 184 vline~;
#X obj 270 140 inlet;
#X obj 270 162 pack 0 100;
#X obj 170 320 inlet~;
#X obj 230 320 inlet~;
#X obj 150 450 outlet~;
#X obj 170 370 *~;
#X obj 230 370 *~;
#X text 40 300 L1;
#X text 110 300 R1;
#X text 170 300 L2;
#X text 230 300 R2;
#X text 10 40 Stereo crossfader;
#X text 10 60 Inlets 1-4 are audio signals corresponding to the left
and right channels of two stereo inputs;
#X text 10 90 If the fifth inlet receives 1 \, it will gradually mute
the first stereo input and boost the second \; vice versa if it receives
0;
#X connect 0 0 4 0;
#X connect 1 0 12 0;
#X connect 2 0 3 0;
#X connect 3 0 1 1;
#X connect 3 0 0 1;
#X connect 5 0 0 0;
#X connect 6 0 1 0;
#X connect 7 0 2 0;
#X connect 7 0 14 1;
#X connect 7 0 13 1;
#X connect 8 0 9 0;
#X connect 9 0 7 0;
#X connect 10 0 13 0;
#X connect 11 0 14 0;
#X connect 13 0 4 0;
#X connect 14 0 12 0;
#X restore 50 220 pd crossfade~;
#X obj 50 100 inlet~;
#X obj 130 290 outlet~;
#X obj 100 100 inlet~;
#X obj 130 170 *~ 0.5;
#X obj 130 130 r~ g26-\$0-preview-audio;
#X obj 240 150 r g26-\$0-preview-auto;
#X connect 1 0 2 4;
#X connect 2 0 0 0;
#X connect 2 1 4 0;
#X connect 3 0 2 0;
#X connect 5 0 2 1;
#X connect 6 0 2 2;
#X connect 6 0 2 3;
#X connect 7 0 6 0;
#X connect 8 0 1 0;
#X restore 10 860 pd test-prev;
#X obj 440 30 bng 14 250 50 0 empty empty Preview 0 -10 0 10 #fcfcfc
#000000 #000000;
#X obj 440 60 bng 14 250 50 0 empty empty Stop\\\ Prvw 0 -10 0 10 #fcfcfc
#000000 #000000;
#N canvas 1190 27 858 1094 info 0;
#X text 10 80 Based on Jakob Skouborg's Granular21 patch: https://github.com/jaffasplaffa/Pure-data-patches/tree/master
, f 61;
#X text 10 120 # Loading samples;
#X text 10 30 --------------------------------------;
#X text 10 160 Their sample rate should match the sample rate at which
you are running Pd \, commonly 48kHz.;
#X text 10 140 Samples are stored in the directory "samples".;
#X text 10 10 Granular26 by hyperpenelope (May 2026);
#X text 10 60 Granular26 is a granular synthesiser.;
#X text 10 250 The leftmost radio button replaces the current sample
with silence.;
#X text 10 190 Clicking one of the radio buttons under "Select sample"
will load the file sampleN.wav where N is the number of the button.
Currently ten samples - sample1.wav throguh sample10.wav - are supported.
;
#X restore 10 910 pd info;
#X floatatom 500 190 5 1 64 0 - - g26-#0-grain-on, f 5;
#X obj 360 270 hsl 128 15 1 2048 0 0 g26-\$0-grain-size g26-\$0-grain-size-init
empty -2 -8 0 10 #fcfcfc #000000 #000000 614 1;
#X floatatom 500 270 5 0 0 1 ms g26-#0-grain-size -, f 5;
#X obj 360 290 hsl 128 15 0 100 0 0 g26-\$0-random-pos g26-\$0-random-pos-init
empty -2 -8 0 10 #fcfcfc #000000 #000000 0 1;
#X floatatom 500 290 5 0 0 1 % g26-#0-random-pos -, f 5;
#X obj 360 250 hsl 128 15 0 100 0 0 g26-\$0-grain-centre g26-\$0-grain-centre-init
empty -2 -8 0 10 #fcfcfc #000000 #000000 6350 1;
#X floatatom 500 250 5 0 0 1 % g26-#0-grain-centre -, f 5;
#X obj 220 30 hradio 15 0 0 13 empty g26-\$0-sample-selector-init Select\\\ Sample
0 -10 0 10 #fcfcfc #000000 #000000 0;
#X msg 780 210 8;
#X msg 810 210 16;
#X msg 750 250 32;
#X msg 780 250 64;
#X text 360 150 # of grains:;
#X obj 380 710 loadbang;
#X msg 270 790 0;
#X obj 410 220 tgl 15 0 g26-\$0-reverse g26-\$0-reverse-init empty
17 7 0 10 #fcfcfc #000000 #000000 0 1;
#X text 360 220 Reverse;
#X obj 780 170 loadbang;
#X msg 820 790 100;
#X msg 650 790 50;
#X obj 360 310 hsl 128 15 0 100 0 0 g26-\$0-pan-spray g26-\$0-pan-spray-init
empty -2 -8 0 10 #fcfcfc #000000 #000000 0 1;
#X floatatom 500 310 5 0 0 1 % g26-#0-pan-spray -, f 5;
#X text 220 310 Pan spray;
#X floatatom 250 490 5 0 0 1 % g26-#0-adsr-peak -, f 5;
#X msg 500 790 25;
#X text 220 250 Grain centre;
#X text 220 270 Grain size;
#X text 220 290 Random position range;
#X obj 260 350 vsl 15 128 0 100 0 0 g26-\$0-adsr-peak g26-\$0-adsr-peak-init
empty 0 -9 0 10 #fcfcfc #000000 #000000 3175 1;
#N canvas 1104 27 944 1094 midi-adsr 0;
#X obj 140 320 adsr~;
#X obj 39 130 inlet~;
#X obj 90 130 inlet~;
#X obj 40 370 *~;
#X obj 90 370 *~;
#X obj 40 410 outlet~;
#X obj 90 410 outlet~;
#X obj 140 160 moses 1;
#N canvas 797 439 454 302 vel2amp-sq 0;
#X obj 130 60 inlet;
#X obj 130 120 *;
#X obj 130 90 t f f;
#X obj 130 145 / 16129;
#X obj 130 170 outlet;
#X connect 0 0 2 0;
#X connect 1 0 3 0;
#X connect 2 0 1 0;
#X connect 2 1 1 1;
#X connect 3 0 4 0;
#X restore 210 200 pd vel2amp-sq;
#X obj 280 250 * 1;
#X obj 140 130 inlet;
#X text 40 100 Stereo signal;
#X obj 240 250 * 1;
#X text 210 170 Turn velocity into amplitude between 0 and 1, f 25
;
#X obj 410 150 * 0.01;
#X obj 440 190 * 0.01;
#X text 140 100 MIDI velocity;
#X obj 410 130 r g26-\$0-adsr-peak;
#X obj 440 170 r g26-\$0-adsr-sus;
#X obj 460 210 r g26-\$0-adsr-att;
#X obj 480 230 r g26-\$0-adsr-dec;
#X obj 500 250 r g26-\$0-adsr-rel;
#X connect 0 0 4 1;
#X connect 0 0 3 1;
#X connect 1 0 3 0;
#X connect 2 0 4 0;
#X connect 3 0 5 0;
#X connect 4 0 6 0;
#X connect 7 1 8 0;
#X connect 8 0 9 0;
#X connect 8 0 12 0;
#X connect 9 0 0 2;
#X connect 10 0 7 0;
#X connect 10 0 0 0;
#X connect 12 0 0 1;
#X connect 14 0 12 1;
#X connect 15 0 9 1;
#X connect 17 0 14 0;
#X connect 18 0 15 0;
#X connect 19 0 0 3;
#X connect 20 0 0 4;
#X connect 21 0 0 5;
#X restore 10 810 pd midi-adsr;
#X obj 320 350 vsl 15 128 0 1000 0 0 g26-\$0-adsr-att g26-\$0-adsr-att-init
empty 0 -9 0 10 #fcfcfc #000000 #000000 1270 1;
#X text 440 510 S;
#X text 320 510 A;
#X text 380 510 D;
#X text 500 510 R;
#X floatatom 310 490 5 0 0 1 ms g26-#0-adsr-att -, f 5;
#X obj 380 350 vsl 15 128 0 1000 0 0 g26-\$0-adsr-dec g26-\$0-adsr-dec-init
empty 0 -9 0 10 #fcfcfc #000000 #000000 635 1;
#X floatatom 370 490 5 0 0 1 ms g26-#0-adsr-dec -, f 5;
#X obj 440 350 vsl 15 128 0 100 0 0 g26-\$0-adsr-sus g26-\$0-adsr-sus-init
empty 0 -9 0 10 #fcfcfc #000000 #000000 3175 1;
#X floatatom 430 490 5 0 0 1 % g26-#0-adsr-sus -, f 5;
#X obj 500 350 vsl 15 128 0 4000 0 0 g26-\$0-adsr-rel g26-\$0-adsr-rel-init
empty 0 -9 0 10 #fcfcfc #000000 #000000 317 1;
#X floatatom 490 490 5 0 0 1 ms g26-#0-adsr-rel -, f 5;
#X text 250 510 Peak;
#N canvas 624 339 1261 736 selector 0;
#X obj 280 99 soundfiler;
#X obj 285 172 /;
#X obj 280 118 t b f;
#X obj 280 137 samplerate~;
#X obj 210 20 inlet;
#X floatatom 280 210 6 0 0 0 - - -, f 6;
#X obj 580 20 inlet;
#X msg 580 150 1;
#X msg 740 160 0;
#X obj 740 20 inlet;
#X obj 590 60 delay 500;
#X obj 740 110 delay 500;
#X obj 210 50 sel 0;
#X msg 240 310 set sample\$1.wav;
#X msg 210 290 set NO_SAMPLE;
#X msg 120 80 const 0;
#X obj 120 190 i 0;
#X text 20 80 Zero out sample;
#X text 100 290 Display filename;
#X text 20 160 This stops the granular synthesis fromreading the empty
sample, f 16;
#X obj 120 100 s g26-\$0-grain;
#X obj 121 215 s g26-\$0-size-in-samples;
#X obj 210 340 s g26-\$0-selector-display;
#X obj 350 120 s g26-\$0-size-in-samples;
#X obj 359 188 s g26-\$0-speed-in-hz;
#X obj 590 88 tabplay~ g26-\$0-grain;
#X obj 590 120 s~ g26-\$0-preview-audio;
#X obj 580 181 s g26-\$0-preview-auto;
#X msg 280 80 read -resize samples/sample\$1.wav g26-\$0-grain;
#X connect 0 0 2 0;
#X connect 0 0 23 0;
#X connect 2 0 3 0;
#X connect 2 1 1 1;
#X connect 3 0 1 0;
#X connect 3 0 5 0;
#X connect 4 0 12 0;
#X connect 6 0 7 0;
#X connect 6 0 10 0;
#X connect 7 0 27 0;
#X connect 8 0 27 0;
#X connect 9 0 11 0;
#X connect 10 0 25 0;
#X connect 11 0 8 0;
#X connect 12 0 14 0;
#X connect 12 0 15 0;
#X connect 12 0 16 0;
#X connect 12 1 28 0;
#X connect 12 1 13 0;
#X connect 13 0 22 0;
#X connect 14 0 22 0;
#X connect 15 0 20 0;
#X connect 16 0 21 0;
#X connect 25 0 26 0;
#X connect 25 1 11 0;
#X connect 28 0 0 0;
#X restore 780 50 pd selector;
#X symbolatom 220 60 17 0 0 2 Filename g26-#0-selector-display -,
f 17;
#X text 220 150 Grain window:;
#X obj 220 100 hradio 15 0 0 12 empty g26-\$0-sample-note-init Note/Octave
0 -10 0 10 #fcfcfc #000000 #000000 0;
#X obj 220 120 hradio 15 0 0 9 empty g26-\$0-sample-octave-init empty
0 -10 0 10 #fcfcfc #000000 #000000 4;
#X symbolatom 410 100 5 0 0 0 - g26-#0-sample-note-display -, f 5
;
#N canvas 1076 27 972 1094 tune 0;
#X obj 50 70 inlet;
#X obj 290 70 inlet;
#X obj 50 110 sel 0 1 2 3 4 5 6 7 8 9 10 11;
#X msg 50 160 set C;
#X msg 60 180 set C#;
#X msg 70 200 set D;
#X msg 76 221 set D#;
#X msg 86 241 set E;
#X msg 96 261 set F;
#X msg 106 281 set F#;
#X msg 116 301 set G;
#X msg 126 321 set G#;
#X msg 136 341 set A;
#X msg 146 361 set A#;
#X msg 156 381 set B;
#X text 50 50 Note (0-11);
#X text 290 50 Octave (0-9);
#X obj 290 90 + 1;
#X obj 290 130 * 12;
#X obj 240 90 t b f;
#X obj 290 200 +;
#X obj 360 90 s g26-\$0-sample-octave;
#X obj 290 230 s g26-\$0-sample-pitch;
#X obj 60 480 s g26-\$0-sample-note-display;
#X connect 0 0 2 0;
#X connect 0 0 19 0;
#X connect 1 0 17 0;
#X connect 1 0 21 0;
#X connect 2 0 3 0;
#X connect 2 1 4 0;
#X connect 2 2 5 0;
#X connect 2 3 6 0;
#X connect 2 4 7 0;
#X connect 2 5 8 0;
#X connect 2 6 9 0;
#X connect 2 7 10 0;
#X connect 2 8 11 0;
#X connect 2 9 12 0;
#X connect 2 10 13 0;
#X connect 2 11 14 0;
#X connect 3 0 23 0;
#X connect 4 0 23 0;
#X connect 5 0 23 0;
#X connect 6 0 23 0;
#X connect 7 0 23 0;
#X connect 8 0 23 0;
#X connect 9 0 23 0;
#X connect 10 0 23 0;
#X connect 11 0 23 0;
#X connect 12 0 23 0;
#X connect 13 0 23 0;
#X connect 14 0 23 0;
#X connect 17 0 18 0;
#X connect 18 0 20 0;
#X connect 19 0 20 0;
#X connect 19 1 20 1;
#X connect 20 0 22 0;
#X restore 780 140 pd tune;
#X floatatom 410 120 5 0 0 0 - g26-#0-sample-octave -, f 5;
#X obj 10 590 bng 15 250 50 0 empty empty 2.\\\ Treble\\\ Sax 17 7
0 10 #fcfcfc #000000 #000000;
#N canvas 1040 308 838 751 preset-2 0;
#X obj 60 -240 inlet;
#X msg 350 -50 90;
#X msg 140 80 200;
#X msg 110 100 50;
#X msg 40 140 1000;
#X msg 430 -160 4;
#X msg 390 -140 8;
#X msg 300 -29 12;
#X msg 250 -9 500;
#X msg 210 11 5;
#X msg 170 60 50;
#X msg 80 120 40;
#X obj 430 -140 s g26-\$0-sample-octave-init;
#X obj 390 -120 s g26-\$0-sample-note-init;
#X msg 350 -120 3;
#X obj 350 -30 s g26-\$0-pan-spray-init;
#X obj 250 11 s g26-\$0-grain-size-init;
#X obj 300 -9 s g26-\$0-random-pos-init;
#X obj 210 31 s g26-\$0-grain-centre-init;
#X obj 170 80 s g26-\$0-adsr-peak-init;
#X obj 140 100 s g26-\$0-adsr-att-init;
#X obj 110 120 s g26-\$0-adsr-dec-init;
#X obj 80 140 s g26-\$0-adsr-sus-init;
#X obj 40 160 s g26-\$0-adsr-rel-init;
#X obj 350 -100 s g26-\$0-sample-selector-init;
#X obj 60 -200 t b b b;
#X connect 0 0 25 0;
#X connect 1 0 15 0;
#X connect 2 0 20 0;
#X connect 3 0 21 0;
#X connect 4 0 23 0;
#X connect 5 0 12 0;
#X connect 6 0 13 0;
#X connect 7 0 17 0;
#X connect 8 0 16 0;
#X connect 9 0 18 0;
#X connect 10 0 19 0;
#X connect 11 0 22 0;
#X connect 14 0 24 0;
#X connect 25 0 10 0;
#X connect 25 0 2 0;
#X connect 25 0 3 0;
#X connect 25 0 11 0;
#X connect 25 0 4 0;
#X connect 25 1 1 0;
#X connect 25 1 7 0;
#X connect 25 1 8 0;
#X connect 25 1 9 0;
#X connect 25 2 5 0;
#X connect 25 2 6 0;
#X connect 25 2 14 0;
#X restore 80 620 pd preset-2;
#X obj 140 560 bng 15 250 50 0 empty empty 3.\\\ Mid\\\ Sax\\\ v1 17
7 0 10 #fcfcfc #000000 #000000;
#X msg 750 210 1;
#X obj 140 590 bng 15 250 50 0 empty empty 4.\\\ Mid\\\ Sax\\\ v2 17
7 0 10 #fcfcfc #000000 #000000;
#X obj 260 560 bng 15 250 50 0 empty empty 5.\\\ Candlelit\\\ Bath
17 7 0 10 #fcfcfc #000000 #000000;
#X obj 260 590 bng 15 250 50 0 empty empty 6.\\\ Celtic\\\ Darkness
17 7 0 10 #fcfcfc #000000 #000000;
#N canvas 1059 314 807 548 preset-6 0;
#X obj 42 -378 inlet;
#X msg 332 -187 90;
#X msg 22 2 1000;
#X msg 412 -298 4;
#X msg 282 -167 10;
#X msg 152 -78 80;
#X msg 92 -38 50;
#X msg 62 -18 60;
#X msg 372 -278 5;
#X msg 192 -127 12;
#X msg 232 -147 800;
#X msg 122 -58 25;
#X msg 332 -258 6;
#X obj 412 -278 s g26-\$0-sample-octave-init;
#X obj 372 -258 s g26-\$0-sample-note-init;
#X obj 332 -238 s g26-\$0-sample-selector-init;
#X obj 332 -168 s g26-\$0-pan-spray-init;
#X obj 282 -147 s g26-\$0-random-pos-init;
#X obj 232 -127 s g26-\$0-grain-size-init;
#X obj 192 -107 s g26-\$0-grain-centre-init;
#X obj 152 -58 s g26-\$0-adsr-peak-init;
#X obj 122 -38 s g26-\$0-adsr-att-init;
#X obj 92 -18 s g26-\$0-adsr-dec-init;
#X obj 62 2 s g26-\$0-adsr-sus-init;
#X obj 22 22 s g26-\$0-adsr-rel-init;
#X connect 0 0 9 0;
#X connect 0 0 10 0;
#X connect 0 0 4 0;
#X connect 0 0 1 0;
#X connect 0 0 12 0;
#X connect 0 0 8 0;
#X connect 0 0 3 0;
#X connect 0 0 2 0;
#X connect 0 0 7 0;
#X connect 0 0 6 0;
#X connect 0 0 11 0;
#X connect 0 0 5 0;
#X connect 1 0 16 0;
#X connect 2 0 24 0;
#X connect 3 0 13 0;
#X connect 4 0 17 0;
#X connect 5 0 20 0;
#X connect 6 0 22 0;
#X connect 7 0 23 0;
#X connect 8 0 14 0;
#X connect 9 0 19 0;
#X connect 10 0 18 0;
#X connect 11 0 21 0;
#X connect 12 0 15 0;
#X restore 360 620 pd preset-6;
#N canvas 1127 512 810 583 preset-7 0;
#X obj 30 -310 inlet;
#X msg 322 -127 90;
#X msg 12 62 1000;
#X msg 402 -238 4;
#X msg 82 22 50;
#X msg 112 2 25;
#X msg 362 -218 11;
#X msg 222 -87 720;
#X msg 182 -67 70;
#X msg 142 -18 70;
#X msg 52 42 50;
#X msg 272 -107 12;
#X obj 30 -280 t b b b;
#X obj 402 -218 s g26-\$0-sample-octave-init;
#X obj 362 -198 s g26-\$0-sample-note-init;
#X obj 322 -178 s g26-\$0-sample-selector-init;
#X msg 322 -198 7;
#X obj 322 -108 s g26-\$0-pan-spray-init;
#X obj 272 -87 s g26-\$0-random-pos-init;
#X obj 222 -67 s g26-\$0-grain-size-init;
#X obj 182 -47 s g26-\$0-grain-centre-init;
#X obj 140 0 s g26-\$0-adsr-peak-init;
#X obj 112 22 s g26-\$0-adsr-att-init;
#X obj 82 42 s g26-\$0-adsr-dec-init;
#X obj 52 62 s g26-\$0-adsr-sus-init;
#X obj 12 82 s g26-\$0-adsr-rel-init;
#X connect 0 0 12 0;
#X connect 1 0 17 0;
#X connect 2 0 25 0;
#X connect 3 0 13 0;
#X connect 4 0 23 0;
#X connect 5 0 22 0;
#X connect 6 0 14 0;
#X connect 7 0 19 0;
#X connect 8 0 20 0;
#X connect 9 0 21 0;
#X connect 10 0 24 0;
#X connect 11 0 18 0;
#X connect 12 0 9 0;
#X connect 12 0 5 0;
#X connect 12 0 4 0;
#X connect 12 0 10 0;
#X connect 12 0 2 0;
#X connect 12 1 1 0;
#X connect 12 1 11 0;
#X connect 12 1 7 0;
#X connect 12 1 8 0;
#X connect 12 2 3 0;
#X connect 12 2 6 0;
#X connect 12 2 16 0;
#X connect 16 0 15 0;
#X restore 430 620 pd preset-7;
#X obj 400 560 bng 15 250 50 0 empty empty 7.\\\ Swooning\\\ Violin
17 7 0 10 #fcfcfc #000000 #000000;
#X obj 10 560 bng 15 250 50 0 empty empty 1.\\\ Angelic\\\ Choir 17
7 0 10 #fcfcfc #000000 #000000;
#N canvas 992 421 871 657 preset-1 0;
#X obj 40 -660 inlet;
#X msg 325 -467 90;
#X msg 15 -278 1000;
#X msg 405 -578 4;
#X msg 365 -558 2;
#X msg 325 -538 1;
#X msg 275 -447 4;
#X msg 225 -427 350;
#X msg 185 -407 39;
#X msg 145 -358 70;
#X msg 115 -338 60;
#X msg 85 -318 120;
#X msg 55 -298 50;
#X obj 40 -630 t b b b;
#X obj 405 -558 s g26-\$0-sample-octave-init;
#X obj 365 -538 s g26-\$0-sample-note-init;
#X obj 325 -518 s g26-\$0-sample-selector-init;
#X obj 325 -448 s g26-\$0-pan-spray-init;
#X obj 275 -427 s g26-\$0-random-pos-init;
#X obj 225 -407 s g26-\$0-grain-size-init;
#X obj 185 -387 s g26-\$0-grain-centre-init;
#X obj 145 -338 s g26-\$0-adsr-peak-init;
#X obj 115 -318 s g26-\$0-adsr-att-init;
#X obj 85 -298 s g26-\$0-adsr-dec-init;
#X obj 55 -278 s g26-\$0-adsr-sus-init;
#X obj 15 -258 s g26-\$0-adsr-rel-init;
#X connect 0 0 13 0;
#X connect 1 0 17 0;
#X connect 2 0 25 0;
#X connect 3 0 14 0;
#X connect 4 0 15 0;
#X connect 5 0 16 0;
#X connect 6 0 18 0;
#X connect 7 0 19 0;
#X connect 8 0 20 0;
#X connect 9 0 21 0;
#X connect 10 0 22 0;
#X connect 11 0 23 0;
#X connect 12 0 24 0;
#X connect 13 0 9 0;
#X connect 13 0 10 0;
#X connect 13 0 11 0;
#X connect 13 0 12 0;
#X connect 13 0 2 0;
#X connect 13 1 1 0;
#X connect 13 1 6 0;
#X connect 13 1 7 0;
#X connect 13 1 8 0;
#X connect 13 2 3 0;
#X connect 13 2 4 0;
#X connect 13 2 5 0;
#X restore 10 620 pd preset-1;
#X msg 460 790 4;
#N canvas 1097 337 755 562 preset-8 0;
#X obj 20 10 inlet;
#X msg 300 210 90;
#X msg -2 393 1000;
#X msg 388 93 4;
#X obj 20 40 t b b b;
#X msg 348 113 1;
#X msg 258 224 40;
#X msg 208 244 900;
#X msg 168 264 0;
#X msg 128 313 80;
#X msg 98 333 25;
#X msg 68 353 50;
#X msg 38 373 60;
#X msg 308 133 2;
#X obj 388 113 s g26-\$0-sample-octave-init;
#X obj 348 133 s g26-\$0-sample-note-init;
#X obj 308 153 s g26-\$0-sample-selector-init;
#X obj 302 226 s g26-\$0-pan-spray-init;
#X obj 258 244 s g26-\$0-random-pos-init;
#X obj 208 264 s g26-\$0-grain-size-init;
#X obj 168 284 s g26-\$0-grain-centre-init;
#X obj 128 333 s g26-\$0-adsr-peak-init;
#X obj 98 353 s g26-\$0-adsr-att-init;
#X obj 68 373 s g26-\$0-adsr-dec-init;
#X obj 38 393 s g26-\$0-adsr-sus-init;
#X obj -2 413 s g26-\$0-adsr-rel-init;
#X connect 0 0 4 0;
#X connect 1 0 17 0;
#X connect 2 0 25 0;
#X connect 3 0 14 0;
#X connect 4 0 9 0;
#X connect 4 0 10 0;
#X connect 4 0 11 0;
#X connect 4 0 12 0;
#X connect 4 0 2 0;
#X connect 4 1 1 0;
#X connect 4 1 6 0;
#X connect 4 1 7 0;
#X connect 4 1 8 0;
#X connect 4 2 3 0;
#X connect 4 2 5 0;
#X connect 4 2 13 0;
#X connect 5 0 15 0;
#X connect 6 0 18 0;
#X connect 7 0 19 0;
#X connect 8 0 20 0;
#X connect 9 0 21 0;
#X connect 10 0 22 0;
#X connect 11 0 23 0;
#X connect 12 0 24 0;
#X connect 13 0 16 0;
#X restore 500 620 pd preset-8;
#X obj 400 590 bng 15 250 50 0 empty empty 8.\\\ Metalworking 17 7
0 10 #fcfcfc #000000 #000000;
#X obj 280 810 s g26-\$0-sample-selector-init;
#X obj 270 830 s g26-\$0-random-pos-init;
#X obj 260 850 s g26-\$0-pan-spray-init;
#X obj 250 870 s g26-\$0-reverse-init;
#X obj 240 890 s g26-\$0-sample-note-init;
#X obj 10 670 inlet;
#X obj 150 670 inlet;
#X text 10 650 MIDI pitch \, velocity \, duration;
#X obj 200 670 inlet;
#X obj 460 860 s g26-\$0-sample-octave-init;
#X obj 510 810 s g26-\$0-adsr-peak-init;
#X obj 500 830 s g26-\$0-adsr-sus-init;
#X obj 660 810 s g26-\$0-grain-centre-init;
#X obj 650 830 s g26-\$0-adsr-dec-init;
#X obj 830 810 s g26-\$0-grain-size-init;
#X obj 820 830 s g26-\$0-adsr-att-init;
#X obj 810 850 s g26-\$0-adsr-rel-init;
#X obj 10 890 outlet~;
#X obj 80 890 outlet~;
#X obj 10 720 clone grain 64 \$0;
#X text 340 690 Initialise param values;
#X obj 360 170 bng 15 250 50 0 empty empty 1 17 7 0 10 #fcfcfc #000000
#000000;
#X obj 400 170 bng 15 250 50 0 empty empty 8 17 7 0 10 #fcfcfc #000000
#000000;
#X obj 440 170 bng 15 250 50 0 empty empty 16 17 7 0 10 #fcfcfc #000000
#000000;
#X obj 400 190 bng 15 250 50 0 empty empty 32 17 7 0 10 #fcfcfc #000000
#000000;
#X obj 440 190 bng 15 250 50 0 empty empty 64 17 7 0 10 #fcfcfc #000000
#000000;
#X text 10 540 Presets:;
#X text 220 330 ---------------------------------------------------------
;
#X text 220 140 ---------------------------------------------------------
;
#X text 220 340 Amp env, f 4;
#X msg 10 690 all \$1;
#N canvas 992 370 977 691 preset-5 0;
#X obj 40 -410 inlet;
#X msg 330 -219 90;
#X msg 20 -30 1000;
#X msg 410 -330 4;
#X msg 230 -179 500;
#X msg 370 -310 0;
#X msg 280 -199 30;
#X msg 190 -159 0;
#X msg 150 -110 60;
#X msg 120 -90 20;
#X msg 90 -70 80;
#X msg 60 -50 30;
#X obj 410 -310 s g26-\$0-sample-octave-init;
#X obj 370 -290 s g26-\$0-sample-note-init;
#X obj 330 -270 s g26-\$0-sample-selector-init;
#X msg 330 -290 4;
#X obj 330 -200 s g26-\$0-pan-spray-init;
#X obj 280 -179 s g26-\$0-random-pos-init;
#X obj 230 -159 s g26-\$0-grain-size-init;
#X obj 190 -139 s g26-\$0-grain-centre-init;
#X obj 150 -90 s g26-\$0-adsr-peak-init;
#X obj 120 -70 s g26-\$0-adsr-att-init;
#X obj 90 -50 s g26-\$0-adsr-dec-init;
#X obj 60 -30 s g26-\$0-adsr-sus-init;
#X obj 20 -10 s g26-\$0-adsr-rel-init;
#X obj 40 -370 t b b b;
#X connect 0 0 25 0;
#X connect 1 0 16 0;
#X connect 2 0 24 0;
#X connect 3 0 12 0;
#X connect 4 0 18 0;
#X connect 5 0 13 0;
#X connect 6 0 17 0;
#X connect 7 0 19 0;
#X connect 8 0 20 0;
#X connect 9 0 21 0;
#X connect 10 0 22 0;
#X connect 11 0 23 0;
#X connect 15 0 14 0;
#X connect 25 0 8 0;
#X connect 25 0 9 0;
#X connect 25 0 10 0;
#X connect 25 0 11 0;
#X connect 25 0 2 0;
#X connect 25 1 1 0;
#X connect 25 1 6 0;
#X connect 25 1 4 0;
#X connect 25 1 7 0;
#X connect 25 2 3 0;
#X connect 25 2 5 0;
#X connect 25 2 15 0;
#X restore 290 620 pd preset-5;
#N canvas 1091 338 819 732 preset-3 0;
#X obj 30 -400 inlet;
#X msg 322 -207 90;
#X msg 112 -78 200;
#X msg 82 -58 50;
#X msg 12 -18 1000;
#X msg 402 -318 4;
#X msg 272 -187 12;
#X msg 142 -98 50;
#X msg 52 -38 40;
#X msg 362 -298 4;
#X msg 222 -167 750;
#X msg 182 -147 40;
#X obj 30 -360 t b b b;
#X msg 322 -278 5;
#X obj 402 -298 s g26-\$0-sample-octave-init;
#X obj 362 -278 s g26-\$0-sample-note-init;
#X obj 322 -258 s g26-\$0-sample-selector-init;
#X obj 322 -188 s g26-\$0-pan-spray-init;
#X obj 272 -167 s g26-\$0-random-pos-init;
#X obj 222 -147 s g26-\$0-grain-size-init;
#X obj 182 -127 s g26-\$0-grain-centre-init;
#X obj 142 -78 s g26-\$0-adsr-peak-init;
#X obj 112 -58 s g26-\$0-adsr-att-init;
#X obj 82 -38 s g26-\$0-adsr-dec-init;
#X obj 52 -18 s g26-\$0-adsr-sus-init;
#X obj 12 2 s g26-\$0-adsr-rel-init;
#X connect 0 0 12 0;
#X connect 1 0 17 0;
#X connect 2 0 22 0;
#X connect 3 0 23 0;
#X connect 4 0 25 0;
#X connect 5 0 14 0;
#X connect 6 0 18 0;
#X connect 7 0 21 0;
#X connect 8 0 24 0;
#X connect 9 0 15 0;
#X connect 10 0 19 0;
#X connect 11 0 20 0;
#X connect 12 0 7 0;
#X connect 12 0 2 0;
#X connect 12 0 3 0;
#X connect 12 0 8 0;
#X connect 12 0 4 0;
#X connect 12 1 1 0;
#X connect 12 1 6 0;
#X connect 12 1 10 0;
#X connect 12 1 11 0;
#X connect 12 2 5 0;
#X connect 12 2 9 0;
#X connect 12 2 13 0;
#X connect 13 0 16 0;
#X restore 150 620 pd preset-3;
#N canvas 793 435 864 688 preset-4 0;
#X obj 30 -320 inlet;
#X msg 322 -138 90;
#X msg 112 -9 200;
#X msg 12 51 1000;
#X msg 402 -249 4;
#X msg 362 -229 4;
#X msg 182 -78 80;
#X msg 222 -98 400;
#X msg 272 -118 10;
#X msg 142 -29 80;
#X msg 82 11 50;
#X msg 52 31 60;
#X msg 322 -209 5;
#X obj 402 -229 s g26-\$0-sample-octave-init;
#X obj 322 -189 s g26-\$0-sample-selector-init;
#X obj 322 -119 s g26-\$0-pan-spray-init;
#X obj 222 -78 s g26-\$0-grain-size-init;
#X obj 182 -58 s g26-\$0-grain-centre-init;
#X obj 142 -9 s g26-\$0-adsr-peak-init;
#X obj 112 11 s g26-\$0-adsr-att-init;
#X obj 82 31 s g26-\$0-adsr-dec-init;
#X obj 52 51 s g26-\$0-adsr-sus-init;
#X obj 12 71 s g26-\$0-adsr-rel-init;
#X obj 30 -280 t b b b;
#X obj 362 -209 s g26-\$0-sample-note-init;
#X obj 272 -98 s g26-\$0-random-pos-init;
#X connect 0 0 23 0;
#X connect 1 0 15 0;
#X connect 2 0 19 0;
#X connect 3 0 22 0;
#X connect 4 0 13 0;
#X connect 5 0 24 0;
#X connect 6 0 17 0;
#X connect 7 0 16 0;
#X connect 8 0 25 0;
#X connect 9 0 18 0;
#X connect 10 0 20 0;
#X connect 11 0 21 0;
#X connect 12 0 14 0;
#X connect 23 0 9 0;
#X connect 23 0 2 0;
#X connect 23 0 10 0;
#X connect 23 0 11 0;
#X connect 23 0 3 0;
#X connect 23 1 1 0;
#X connect 23 1 8 0;
#X connect 23 1 7 0;
#X connect 23 1 6 0;
#X connect 23 2 4 0;
#X connect 23 2 5 0;
#X connect 23 2 12 0;
#X restore 220 620 pd preset-4;
#X obj 150 760 delay;
#X obj 200 700 * 1000;
#X obj 190 730 t b f;
#X obj 150 780 0;
#X obj 380 730 t b b b b b;
#X connect 67 0 154 0;
#X connect 67 1 155 0;
#X connect 68 0 114 1;
#X connect 69 0 114 2;
#X connect 78 0 114 0;
#X connect 79 0 71 0;
#X connect 80 0 71 0;
#X connect 81 0 71 0;
#X connect 82 0 71 0;
#X connect 84 0 175 0;
#X connect 85 0 137 0;
#X connect 85 0 138 0;
#X connect 85 0 139 0;
#X connect 85 0 140 0;
#X connect 85 0 141 0;
#X connect 88 0 79 0;
#X connect 89 0 151 0;
#X connect 89 0 152 0;
#X connect 89 0 153 0;
#X connect 90 0 149 0;
#X connect 90 0 150 0;
#X connect 95 0 147 0;
#X connect 95 0 148 0;
#X connect 100 0 67 0;
#X connect 100 1 67 1;
#X connect 117 0 120 0;
#X connect 118 0 120 1;
#X connect 122 0 123 0;
#X connect 124 0 169 0;
#X connect 125 0 71 0;
#X connect 126 0 170 0;
#X connect 127 0 168 0;
#X connect 128 0 129 0;
#X connect 131 0 130 0;
#X connect 132 0 133 0;
#X connect 134 0 146 0;
#X connect 136 0 135 0;
#X connect 142 0 167 0;
#X connect 143 0 100 2;
#X connect 145 0 172 0;
#X connect 156 0 100 0;
#X connect 156 1 100 1;
#X connect 158 0 125 0;
#X connect 159 0 79 0;
#X connect 160 0 80 0;
#X connect 161 0 81 0;
#X connect 162 0 82 0;
#X connect 167 0 156 0;
#X connect 171 0 174 0;
#X connect 172 0 173 0;
#X connect 173 0 171 0;
#X connect 173 1 171 1;
#X connect 174 0 100 2;
#X connect 175 0 85 0;
#X connect 175 1 134 0;
#X connect 175 2 95 0;
#X connect 175 3 90 0;
#X connect 175 4 89 0;
#X coords 0 -1 1 1 571 605 1 -1 9;
