#N canvas 60 27 1988 1100 12;
#X obj 350 140 inlet~;
#X obj 460 140 inlet;
#X obj 510 310 sin;
#X obj 460 170 max -1;
#X obj 460 200 min 1;
#X obj 460 230 + 1;
#X obj 460 259 * 0.785398;
#X text 540 260 range: [0 \, pi/2];
#X text 540 230 range: [0 \, 2];
#X obj 460 310 cos;
#X text 540 200 range: [-1 \, 1];
#X obj 350 360 *~;
#X obj 410 360 *~;
#X obj 350 400 outlet~;
#X obj 410 400 outlet~;
#X connect 0 0 11 0;
#X connect 0 0 12 0;
#X connect 1 0 3 0;
#X connect 2 0 12 1;
#X connect 3 0 4 0;
#X connect 4 0 5 0;
#X connect 5 0 6 0;
#X connect 6 0 2 0;
#X connect 6 0 9 0;
#X connect 9 0 11 1;
#X connect 11 0 13 0;
#X connect 12 0 14 0;
